<svg aria-hidden="true" style="position: absolute; width: 0; height: 0; overflow: hidden;" version="1.1" xmlns="http://www.w3.org/2000/svg" xmlns:xlink="http://www.w3.org/1999/xlink">
<defs>
<symbol id="icon-be" viewBox="0 0 33 32">
<path d="M2.88 0.187c-1.168 0.511-2.082 1.422-2.584 2.556l-0.013 0.032-0.174 0.397v25.636l0.174 0.397c0.529 1.185 1.467 2.107 2.63 2.604l0.033 0.012 0.38 0.16 25.674-0.028 0.478-0.23c1.13-0.542 1.863-1.274 2.403-2.398l0.234-0.488v-25.694l-0.234-0.488c-0.295-0.614-0.614-1.060-1.058-1.483-0.442-0.419-0.746-0.626-1.346-0.914l-0.478-0.23-25.694-0.026-0.427 0.186zM28.124 2.161c0.177 0.046 0.438 0.148 0.581 0.226 0.334 0.181 0.832 0.679 1.035 1.034 0.348 0.607 0.326-0.227 0.326 12.56 0 12.811 0.022 11.967-0.33 12.586-0.19 0.335-0.762 0.895-1.077 1.056-0.579 0.295 0.092 0.28-12.533 0.28-10.173 0-11.716-0.010-11.989-0.082-0.867-0.226-1.522-0.826-1.855-1.699l-0.123-0.324v-23.615l0.123-0.324c0.322-0.845 0.906-1.401 1.763-1.678 0.284-0.092 0.942-0.098 12.029-0.101 10.366-0.002 11.766 0.007 12.050 0.081zM5.576 15.99v6.752h3.118c3.559 0 3.633-0.007 4.46-0.411 0.854-0.416 1.604-1.227 1.952-2.108 0.521-1.321 0.2-3.050-0.752-4.052-0.078-0.082-0.141-0.162-0.141-0.181s0.063-0.098 0.141-0.18c0.952-1.002 1.273-2.731 0.752-4.052-0.348-0.881-1.098-1.692-1.952-2.108-0.827-0.404-0.901-0.411-4.46-0.411h-3.118v6.751zM17.822 10.359v-1.121h7.872v2.242h-7.872v-1.121zM12.082 11.65c0.629 0.298 0.994 0.858 0.994 1.524 0 0.674-0.361 1.23-0.989 1.524l-0.306 0.143-3.909 0.034v-3.405l3.909 0.036 0.301 0.143zM20.691 13.101c-0.796 0.168-1.622 0.605-2.251 1.19-1.13 1.050-1.69 2.506-1.548 4.023 0.047 0.619 0.214 1.188 0.478 1.7l-0.012-0.025c0.597 1.237 1.682 2.146 3.062 2.568 0.442 0.134 0.569 0.149 1.309 0.147 0.665-0.002 0.903-0.024 1.258-0.12 1.179-0.324 2.158-1.040 2.811-1.996l0.011-0.017c0.147-0.217 0.267-0.406 0.267-0.419s-0.39-0.25-0.866-0.524c-0.435-0.243-0.752-0.434-1.064-0.633l0.094 0.056c-0.091-0.069 0.048-0.078 1.146-0.080l1.25-0.002-0.028-1.026c-0.025-0.921-0.043-1.072-0.177-1.49-0.559-1.746-1.919-2.991-3.67-3.362-0.481-0.102-1.57-0.098-2.070 0.009zM22.426 15.354c0.638 0.177 1.278 0.661 1.589 1.202l0.099 0.172h-2.354c-1.295 0-2.354-0.014-2.354-0.031 0-0.081 0.343-0.514 0.588-0.743 0.455-0.429 1.071-0.693 1.748-0.693 0.243 0 0.479 0.034 0.702 0.098l-0.018-0.004zM12.086 17.282c1.328 0.622 1.326 2.416-0.005 3.048l-0.301 0.143-3.909 0.036v-3.405l3.909 0.034 0.306 0.144zM24.108 19.003c0 0.019-0.11 0.189-0.245 0.378-0.415 0.582-1.044 0.958-1.78 1.067-0.945 0.139-1.99-0.337-2.506-1.142-0.094-0.146-0.17-0.281-0.17-0.301s1.058-0.036 2.351-0.036 2.35 0.015 2.35 0.034z"></path>
</symbol>
<symbol id="icon-insta" viewBox="0 0 31 32">
<path d="M8.588 0.681c-2.633 0.254-5.114 1.828-6.569 4.169-0.659 1.061-1.103 2.293-1.299 3.606-0.102 0.688-0.102 14.871 0 15.558 0.553 3.712 3.173 6.676 6.661 7.54 1.098 0.272 0.88 0.265 8.514 0.265 5.744 0 7.214-0.014 7.571-0.071 2.025-0.322 3.638-1.141 5.053-2.565 1.392-1.402 2.244-3.143 2.552-5.221 0.102-0.688 0.101-14.821 0-15.506-0.303-2.032-1.125-3.711-2.53-5.171-1.099-1.139-2.501-1.978-4.077-2.387l-0.061-0.013c-1.015-0.256-1.066-0.258-8.457-0.251-3.806 0.004-7.118 0.026-7.36 0.048zM23.233 3.094c1.326 0.209 2.488 0.768 3.433 1.65 1.219 1.139 1.945 2.636 2.107 4.347 0.073 0.766 0.072 13.527-0.001 14.298-0.153 1.618-0.796 3.002-1.923 4.137-0.695 0.714-1.559 1.26-2.527 1.573l-0.044 0.012c-1.003 0.327-0.64 0.314-8.382 0.314-5.516 0-7.154-0.015-7.426-0.066-1.413-0.268-2.569-0.867-3.528-1.829-0.937-0.94-1.533-2.046-1.833-3.401l-0.118-0.532v-7.31c0-8.118-0.016-7.704 0.347-8.764 0.819-2.385 2.726-4.011 5.194-4.428 0.609-0.103 14.050-0.104 14.7-0.001zM24.959 5.484c-0.498 0.138-0.813 0.593-0.815 1.179-0.001 0.29 0.022 0.378 0.152 0.583 0.215 0.339 0.51 0.521 0.887 0.549 0.368 0.027 0.627-0.053 0.873-0.269 0.25-0.219 0.387-0.546 0.387-0.919 0-0.804-0.706-1.339-1.484-1.124zM15.532 7.843c-1.202 0.048-2.537 0.434-3.601 1.040-1.354 0.772-2.569 2.044-3.287 3.44-1.668 3.247-1.112 7.102 1.407 9.764 0.887 0.94 1.995 1.662 3.241 2.084l0.056 0.017c0.764 0.267 1.645 0.421 2.562 0.421 2.314 0 4.399-0.982 5.861-2.551l0.004-0.005c1.254-1.319 2.024-2.935 2.266-4.759 0.092-0.693 0.037-2.139-0.105-2.802-0.361-1.693-1.189-3.155-2.34-4.288l-0.001-0.001c-1.459-1.463-3.477-2.367-5.706-2.367-0.126 0-0.25 0.003-0.375 0.009l0.018-0.001zM16.989 10.335c1.791 0.338 3.302 1.492 4.131 3.155 0.443 0.89 0.635 1.716 0.633 2.738-0.002 1.619-0.558 3.031-1.64 4.159-0.915 0.955-1.981 1.533-3.225 1.75-2.474 0.432-4.985-0.823-6.158-3.077-1.289-2.478-0.725-5.572 1.346-7.386 1.368-1.199 3.122-1.677 4.913-1.339z"></path>
</symbol>
<symbol id="icon-linkedin" viewBox="0 0 32 32">
<path d="M4.035 0.376c-1.548 0.259-2.876 1.278-3.552 2.725-0.443 0.948-0.404-0.341-0.404 13.032s-0.040 12.083 0.404 13.032c0.6 1.284 1.627 2.171 3.021 2.608l0.469 0.148 11.733 0.014c13.055 0.016 12.186 0.038 13.093-0.347 0.546-0.232 0.767-0.364 1.243-0.746 0.735-0.589 1.346-1.564 1.595-2.547l0.121-0.48v-23.36l-0.121-0.48c-0.25-0.984-0.86-1.959-1.595-2.548-0.476-0.382-0.697-0.514-1.243-0.745-0.904-0.384-0.052-0.361-12.926-0.354-6.37 0.003-11.697 0.026-11.839 0.050zM27.828 2.658c0.598 0.224 1.171 0.73 1.445 1.273 0.287 0.571 0.273-0.081 0.273 12.202s0.014 11.631-0.273 12.201c-0.274 0.544-0.848 1.049-1.445 1.273l-0.335 0.126-11.4 0.014c-12.441 0.015-11.791 0.030-12.439-0.287-0.387-0.19-0.925-0.727-1.115-1.115-0.313-0.639-0.298-0.021-0.298-12.212 0-12.157-0.013-11.589 0.29-12.193 0.243-0.483 0.783-1.001 1.252-1.202 0.539-0.23 0.247-0.225 12.27-0.215l11.44 0.009 0.335 0.125zM10.238 7.593c-0.557 0.119-1.008 0.488-1.24 0.98l-0.005 0.011c-0.166 0.365-0.161 1.153 0.012 1.534 0.15 0.332 0.552 0.725 0.902 0.883 0.389 0.174 1.111 0.165 1.507-0.020 0.422-0.197 0.663-0.432 0.863-0.837 0.157-0.318 0.174-0.4 0.172-0.809-0.002-0.371-0.028-0.51-0.138-0.75-0.261-0.568-0.681-0.894-1.296-1.007-0.373-0.068-0.396-0.068-0.778 0.015zM19.787 12.56c-0.601 0.142-1.119 0.44-1.525 0.85l-0 0c-0.208 0.208-0.441 0.461-0.519 0.563l-0.141 0.187-0.002-1.413h-3.36v10.4h3.355l0.016-3.241 0.016-3.24 0.129-0.32c0.178-0.443 0.667-0.931 1.072-1.070 0.807-0.276 1.612-0.018 2.002 0.644 0.293 0.497 0.305 0.643 0.33 4.066l0.023 3.16h3.351v-3.267c0-3.455-0.023-3.902-0.246-4.669-0.386-1.334-1.279-2.259-2.504-2.596-0.451-0.124-1.557-0.155-1.997-0.055zM8.853 17.947v5.2h3.36v-10.4h-3.36v5.2z"></path>
</symbol>
<symbol id="icon-bascet" viewBox="0 0 31 32">
<path d="M14.361 0.66c-0.629 0.047-1.808 0.248-2.515 0.429-5.545 1.42-9.826 5.876-11.166 11.617-0.422 1.812-0.485 4.318-0.154 6.229 0.941 5.438 4.72 10.047 9.794 11.941 2.6 0.971 5.541 1.193 8.297 0.625 2.729-0.563 5.291-1.927 7.369-3.925 4.107-3.948 5.744-9.811 4.297-15.385-0.164-0.622-0.319-1.108-0.492-1.584l0.041 0.127c-0.492-1.331-1.459-3.085-2.288-4.148-2.665-3.419-6.455-5.52-10.658-5.909-0.527-0.049-1.97-0.059-2.523-0.017zM16.962 3.099c2.309 0.266 4.485 1.139 6.267 2.516 0.17 0.131 0.332 0.254 0.359 0.272 0.074 0.050-0.839 1.076-1.409 1.584-1.132 1.007-2.13 1.684-3.456 2.345-0.537 0.267-1.648 0.746-1.73 0.746-0.011 0-0.226-0.368-0.478-0.819-0.983-1.761-2.376-3.967-3.472-5.497-0.306-0.426-0.556-0.792-0.556-0.813 0-0.054 1.002-0.258 1.655-0.337 0.778-0.094 1.99-0.093 2.819 0.003zM10.55 4.826c0.969 1.305 1.981 2.82 2.92 4.384l0.145 0.26c0.923 1.549 1.054 1.792 0.988 1.828-0.033 0.018-0.517 0.139-1.075 0.27-2.121 0.496-3.998 0.789-6.412 1.001-1.164 0.101-3.994 0.165-3.994 0.089 0-0.1 0.421-1.317 0.606-1.748 0.978-2.292 2.712-4.379 4.772-5.739 0.465-0.308 1.519-0.901 1.603-0.902 0.020-0.001 0.221 0.251 0.447 0.558zM25.773 8.182c1.357 1.797 2.196 3.817 2.568 6.179 0.073 0.46 0.094 0.901 0.094 1.91 0 0.807-0.020 1.33-0.052 1.36s-0.24 0.022-0.546-0.021c-1.759-0.249-4.883-0.204-7.067 0.1-0.432 0.060-0.489 0.059-0.528-0.015-0.023-0.044-0.201-0.479-0.395-0.966-0.63-1.569-1.134-2.69-1.667-3.794l0.169 0.388-0.286-0.596 0.554-0.24c2.665-1.157 4.762-2.652 6.405-4.564 0.154-0.179 0.286-0.325 0.293-0.325s0.213 0.264 0.456 0.585zM16.276 14.479c0.616 1.313 1.623 3.642 1.623 3.753 0 0.009-0.181 0.082-0.403 0.162-2.83 1.013-5.525 2.848-8.649 5.887-0.424 0.415-0.832 0.835-1.229 1.264l-0.021 0.023-0.546 0.602-0.46-0.454c-2.022-1.997-3.399-4.683-3.806-7.426-0.114-0.769-0.177-1.915-0.144-2.613l0.027-0.572 1.827-0.031c2.285-0.040 3.881-0.168 6.042-0.484 1.184-0.174 3.237-0.592 4.293-0.874 0.132-0.045 0.44-0.125 0.75-0.2l0.167-0.034c0.032-0.003 0.27 0.446 0.529 0.997zM27.125 19.949c0.396 0.040 0.732 0.086 0.748 0.101 0.055 0.056-0.425 1.359-0.741 2.007-0.676 1.389-1.444 2.466-2.547 3.57-0.629 0.629-1.515 1.385-1.713 1.461-0.043 0.016-0.108-0.23-0.208-0.798-0.386-2.115-0.831-3.901-1.375-5.644l0.090 0.334c-0.142-0.466-0.247-0.866-0.233-0.888 0.025-0.039 0.699-0.121 1.801-0.218 0.684-0.060 3.308-0.013 4.179 0.074zM19.113 21.633c0.699 2.277 1.293 4.883 1.467 6.439l0.035 0.312-0.174 0.067c-0.535 0.207-1.432 0.499-1.865 0.607-0.908 0.233-1.95 0.366-3.024 0.366-1.871 0-3.646-0.405-5.245-1.133l0.079 0.032c-0.61-0.274-1.386-0.696-1.386-0.754 0-0.055 1.205-1.306 1.9-1.972 2.058-1.974 4.043-3.415 6.025-4.372 0.533-0.257 1.664-0.709 1.808-0.722 0.016-0.002 0.187 0.507 0.378 1.129z"></path>
</symbol>
<symbol id="icon-figma" viewBox="0 0 21 32">
<path fill="#0acf83" style="fill: var(--color1, #0acf83)" d="M5.351 31.879c2.858 0 5.177-2.361 5.177-5.271v-5.271h-5.177c-2.858 0-5.176 2.361-5.176 5.271s2.318 5.271 5.176 5.271z"></path>
<path fill="#a259ff" style="fill: var(--color2, #a259ff)" d="M0.175 16.059c0-2.911 2.318-5.271 5.176-5.271h5.177v10.549h-5.177c-2.858-0.007-5.176-2.368-5.176-5.278z"></path>
<path fill="#f24e1e" style="fill: var(--color3, #f24e1e)" d="M0.175 5.51c0-2.911 2.318-5.271 5.176-5.271h5.177v10.549h-5.177c-2.858 0-5.176-2.368-5.176-5.278z"></path>
<path fill="#ff7262" style="fill: var(--color4, #ff7262)" d="M10.534 0.238h5.177c2.858 0 5.176 2.361 5.176 5.271s-2.318 5.271-5.176 5.271h-5.177v-10.542z"></path>
<path fill="#1abcfe" style="fill: var(--color5, #1abcfe)" d="M20.887 16.059c0 2.911-2.318 5.271-5.176 5.271s-5.177-2.361-5.177-5.271c0-2.911 2.319-5.271 5.177-5.271s5.176 2.361 5.176 5.271z"></path>
</symbol>
<symbol id="icon-ps" viewBox="0 0 32 32">
<path fill="#000" style="fill: var(--color6, #000)" d="M1.399 1.574h29.037v28.748h-29.037v-28.748z"></path>
<path fill="#31c5f0" style="fill: var(--color7, #31c5f0)" d="M1.399 1.574h29.037v28.748h-29.037v-28.748zM0.079 31.666h31.67v-31.436h-31.67v31.436zM21.436 13.131c-1.041 0-1.396 0.536-1.396 0.982 0 0.485 0.235 0.82 1.637 1.557 2.069 1.020 2.716 2.003 2.716 3.437 0 2.151-1.612 3.308-3.789 3.308-1.148 0-2.139-0.239-2.704-0.575-0.095-0.039-0.108-0.11-0.108-0.213v-1.983c0-0.136 0.063-0.174 0.159-0.11 0.748 0.496 1.665 0.793 2.652 0.795h0.001c1.041 0 1.479-0.446 1.479-1.047 0-0.484-0.305-0.911-1.638-1.615-1.872-0.911-2.653-1.835-2.653-3.385 0-1.732 1.333-3.172 3.643-3.172 1.136 0 1.929 0.174 2.361 0.375 0.108 0.065 0.133 0.174 0.133 0.271v1.841c0 0.11-0.064 0.174-0.197 0.136-0.584-0.375-1.441-0.601-2.298-0.601zM10.087 14.727c0.305 0.026 0.54 0.026 1.067 0.026 1.542 0 2.995-0.549 2.995-2.688 0-1.706-1.041-2.565-2.799-2.565-0.527 0-1.028 0.026-1.269 0.039l0.006 5.188zM7.733 7.595c0-0.097 0.184-0.161 0.292-0.161 0.844-0.038 2.101-0.064 3.402-0.064 3.655 0 5.084 2.041 5.084 4.645 0 3.411-2.431 4.878-5.414 4.878-0.501 0-0.673-0.026-1.028-0.026v5.156c0 0.11-0.038 0.161-0.159 0.161h-2.018c-0.108 0-0.159-0.039-0.159-0.162v-14.426z"></path>
</symbol>
<symbol id="icon-ai" viewBox="0 0 32 32">
<path fill="#000" style="fill: var(--color6, #000)" d="M1.423 1.583h29.070v28.802h-29.070v-28.802z"></path>
<path fill="#ff7f18" style="fill: var(--color8, #ff7f18)" d="M1.423 1.584h29.070v28.802h-29.070v-28.802zM0.102 31.73h31.719v-31.492h-31.719v31.492zM20.878 11.467c0-0.11 0.038-0.162 0.159-0.162h2.077c0.108 0 0.159 0.039 0.159 0.162v10.62c0 0.11-0.025 0.161-0.159 0.161h-2.052c-0.133 0-0.172-0.065-0.172-0.175v-10.607h-0.012zM20.732 8.407c0-0.86 0.597-1.371 1.346-1.371 0.807 0 1.346 0.55 1.346 1.371 0 0.886-0.565 1.371-1.372 1.371-0.762 0.006-1.321-0.479-1.321-1.371zM14.787 15.89c-0.368-1.494-1.245-4.747-1.575-6.325h-0.026c-0.279 1.572-0.978 4.236-1.531 6.325h3.131zM11.116 18.070l-1.042 4.036c-0.025 0.11-0.063 0.136-0.197 0.136h-1.944c-0.133 0-0.159-0.039-0.133-0.201l3.754-13.376c0.064-0.239 0.108-0.459 0.134-1.119 0-0.097 0.038-0.136 0.108-0.136h2.775c0.096 0 0.134 0.026 0.159 0.136l4.205 14.521c0.025 0.11 0 0.175-0.108 0.175h-2.191c-0.108 0-0.171-0.026-0.197-0.123l-1.086-4.049h-4.236z"></path>
</symbol>
<symbol id="icon-ae" viewBox="0 0 32 32">
<path fill="#000" style="fill: var(--color6, #000)" d="M1.447 1.583h29.070v28.802h-29.070v-28.802z"></path>
<path fill="#d8a1ff" style="fill: var(--color9, #d8a1ff)" d="M1.447 1.584h29.070v28.802h-29.070v-28.802zM0.126 31.73h31.719v-31.492h-31.719v31.492zM22.565 15.418c0.673 0 0.915 0 0.979-0.026 0-0.097 0.025-0.162 0.025-0.226 0-0.725-0.343-2.070-1.715-2.070-1.27 0-1.81 1.132-1.943 2.329h2.655v-0.007zM19.886 17.262c0.025 1.818 0.87 3.040 2.884 3.040 0.781 0 1.454-0.11 2.153-0.414 0.095-0.039 0.159-0.026 0.159 0.097v1.682c0 0.136-0.038 0.201-0.133 0.272-0.699 0.349-1.575 0.511-2.655 0.511-3.487 0-4.795-2.626-4.795-5.543 0-3.175 1.613-5.776 4.452-5.776 2.884 0 3.887 2.464 3.887 4.469 0 0.647-0.038 1.171-0.108 1.429-0.026 0.11-0.064 0.149-0.171 0.175-0.267 0.039-1.042 0.097-2.204 0.097h-3.461v-0.039h-0.006zM12.797 15.89c-0.368-1.494-1.27-4.747-1.6-6.325h-0.026c-0.279 1.572-1.003 4.236-1.543 6.325h3.169zM9.088 18.070l-1.042 4.023c-0.025 0.11-0.063 0.149-0.197 0.149h-1.95c-0.133 0-0.159-0.039-0.133-0.201l3.754-13.363c0.063-0.239 0.108-0.433 0.133-1.106 0-0.097 0.038-0.136 0.108-0.136h2.776c0.095 0 0.133 0.026 0.159 0.136l4.198 14.495c0.025 0.11 0 0.175-0.108 0.175h-2.178c-0.108 0-0.171-0.039-0.197-0.136l-1.086-4.036h-4.236z"></path>
</symbol>
<symbol id="icon-books" viewBox="0 0 36 32">
<path d="M7 4h-6c-0.55 0-1 0.45-1 1v22c0 0.55 0.45 1 1 1h6c0.55 0 1-0.45 1-1v-22c0-0.55-0.45-1-1-1zM6 10h-4v-2h4v2z"></path>
<path d="M17 4h-6c-0.55 0-1 0.45-1 1v22c0 0.55 0.45 1 1 1h6c0.55 0 1-0.45 1-1v-22c0-0.55-0.45-1-1-1zM16 10h-4v-2h4v2z"></path>
<path d="M23.909 5.546l-5.358 2.7c-0.491 0.247-0.691 0.852-0.443 1.343l8.999 17.861c0.247 0.491 0.852 0.691 1.343 0.443l5.358-2.7c0.491-0.247 0.691-0.852 0.443-1.343l-8.999-17.861c-0.247-0.491-0.852-0.691-1.343-0.443z"></path>
</symbol>
</defs>
</svg>
